# xmcd CD database file
# 
# Track frame offsets:
# 	150
# 	19764
# 	32801
# 	50256
# 	65356
# 	85485
# 	97200
# 	112662
# 	131579
# 	149896
# 	169216
# 
# Disc length: 2529 seconds
# 
# Submitted via: Nero 5.5.3.5
# 
# Revision: 0
# Processed by: cddbd v1.4PL0 Copyright (c) Steve Scherf et al.
#
DISCID=9b09df0b
DTITLE=Billy Ray Cyrus - Shot Full Of Love
DYEAR=1900
DGENRE=
TTITLE0=Shot Full Of Love
TTITLE1=Shot Full Of Love
TTITLE2=Shot Full Of Love
TTITLE3=Shot Full Of Love
TTITLE4=Shot Full Of Love
TTITLE5=Shot Full Of Love
TTITLE6=Shot Full Of Love
TTITLE7=Shot Full Of Love
TTITLE8=Shot Full Of Love
TTITLE9=Shot Full Of Love
TTITLE10=Shot Full Of Love
EXTD=
EXTT0=
EXTT1=
EXTT2=
EXTT3=
EXTT4=
EXTT5=
EXTT6=
EXTT7=
EXTT8=
EXTT9=
EXTT10=
PLAYORDER=
